<svg width="32" height="32" fill="none" xmlns="http://www.w3.org/2000/svg"><path d="M32 5.669v3.44H0v-3.44A3.439 3.439 0 0 1 3.429 2.24h4v3.383c0 .628.514 1.143 1.142 1.143.629 0 1.143-.515 1.143-1.143V2.24h12.572v3.383c0 .628.514 1.143 1.143 1.143.628 0 1.142-.515 1.142-1.143V2.24h4A3.439 3.439 0 0 1 32 5.669Zm-9.143 17.165h8.446l-9.589 8.549v-7.406c0-.628.515-1.143 1.143-1.143Z" fill="#333"/><path d="M32 11.394v9.155h-9.143a3.439 3.439 0 0 0-3.428 3.428V32h-16A3.439 3.439 0 0 1 0 28.571V11.394h32ZM9.714 1.143V2.24H7.43V1.143A1.144 1.144 0 0 1 8.57 0c.63 0 1.144.514 1.144 1.143Zm14.857 0V2.24h-2.285V1.143C22.286.514 22.8 0 23.429 0c.628 0 1.142.514 1.142 1.143Z" fill="#333"/></svg>