<svg width="669" height="245" viewBox="0 0 669 245" fill="none" xmlns="http://www.w3.org/2000/svg">
<path d="M566.916 235.146C534.963 235.146 509.956 208.75 509.956 178.186C509.956 146.233 536.352 121.227 566.916 121.227C598.869 121.227 623.875 146.233 623.875 178.186C623.875 210.139 598.869 235.146 566.916 235.146ZM119.573 235.146C87.6203 235.146 62.6136 208.75 62.6136 178.186C62.6136 146.233 89.0096 121.227 119.573 121.227C151.526 121.227 176.533 146.233 176.533 178.186C176.533 210.139 151.526 235.146 119.573 235.146Z" fill="#B7BDB3"/>
<path d="M1.48657 153.18C5.65436 140.676 11.2115 129.562 19.5471 119.837C20.9363 118.448 23.7148 117.059 25.1041 115.669C59.8356 103.166 62.6141 85.1057 80.6745 80.9379C111.238 71.2131 144.581 69.8238 179.312 73.9916C186.258 75.3809 193.205 73.9916 201.54 69.8239L257.111 39.2601C265.446 35.0923 273.782 32.3138 282.117 30.9245C371.03 22.589 443.272 30.9245 503.01 58.7098C505.788 60.099 511.345 61.4883 515.513 60.099C551.634 55.9312 590.533 55.9312 629.433 60.099C643.325 61.4883 654.439 73.9916 654.439 87.8842C654.439 114.28 665.553 135.119 666.943 139.287C672.5 157.347 665.553 179.575 653.05 192.079C654.439 187.911 654.439 182.354 654.439 178.186C654.439 130.951 615.54 93.4413 569.694 93.4413C522.46 93.4413 484.95 132.341 484.95 178.186C484.95 185.133 486.339 193.468 487.728 199.025H205.708C207.097 192.079 208.487 185.133 208.487 178.186C208.487 130.951 169.587 93.4413 123.742 93.4413C76.5068 93.4413 38.9966 132.341 38.9966 178.186C38.9966 185.133 40.3859 193.468 41.7752 199.025C12.6007 199.025 -5.45972 176.797 1.48657 153.18ZM433.547 100.388L472.446 78.1594C447.439 68.4346 419.654 62.8775 389.09 60.099L382.144 101.777H433.547V100.388ZM232.104 100.388H352.97L361.305 57.3205C337.688 55.9312 311.292 57.3205 283.507 60.099C277.95 60.099 273.782 61.4883 269.614 64.2668L222.379 90.6628L232.104 100.388Z" fill="#B7BDB3"/>
<circle cx="334.5" cy="122.5" r="122.5" fill="#ECCF62" fill-opacity="0.9"/>
<path d="M325.52 134.544C325.52 131.6 326.352 129.008 328.016 126.768C329.68 124.464 332.4 122.448 336.176 120.72L343.664 117.36C345.264 116.592 346.48 115.728 347.312 114.768C348.144 113.744 348.56 112.624 348.56 111.408C348.56 108.976 347.504 107.088 345.392 105.744C343.28 104.336 340.24 103.632 336.272 103.632C332.176 103.632 328.912 104.528 326.48 106.32C324.112 108.048 322.704 110.448 322.256 113.52H303.536C304.048 105.648 307.184 99.504 312.944 95.088C318.768 90.672 326.544 88.464 336.272 88.464C346.064 88.464 353.68 90.416 359.12 94.32C364.624 98.16 367.376 103.6 367.376 110.64C367.376 114.096 366.416 117.2 364.496 119.952C362.576 122.704 359.664 124.976 355.76 126.768L347.6 130.608C346.128 131.312 345.008 132.112 344.24 133.008C343.472 133.904 343.088 135.024 343.088 136.368V137.904H326C325.808 137.264 325.68 136.688 325.616 136.176C325.552 135.6 325.52 135.056 325.52 134.544ZM334.352 162.96C331.088 162.96 328.432 162.032 326.384 160.176C324.4 158.32 323.408 155.888 323.408 152.88C323.408 149.808 324.4 147.344 326.384 145.488C328.432 143.632 331.088 142.704 334.352 142.704C337.616 142.704 340.24 143.632 342.224 145.488C344.208 147.344 345.2 149.808 345.2 152.88C345.2 155.888 344.208 158.32 342.224 160.176C340.24 162.032 337.616 162.96 334.352 162.96Z" fill="#333333"/>
</svg>
