<svg width="278" height="101" viewBox="0 0 278 101" fill="none" xmlns="http://www.w3.org/2000/svg">
<path d="M142.736 41V59H137.768V43.16L140 45.416H126.416L128.648 43.16V59H123.68V41H142.736ZM155.974 59.384C153.846 59.384 151.974 58.992 150.358 58.208C148.758 57.424 147.51 56.328 146.614 54.92C145.734 53.512 145.294 51.872 145.294 50C145.294 48.128 145.734 46.488 146.614 45.08C147.51 43.672 148.758 42.576 150.358 41.792C151.974 41.008 153.846 40.616 155.974 40.616C158.118 40.616 159.99 41.008 161.59 41.792C163.19 42.576 164.438 43.672 165.334 45.08C166.23 46.488 166.678 48.128 166.678 50C166.678 51.872 166.23 53.512 165.334 54.92C164.438 56.328 163.19 57.424 161.59 58.208C159.99 58.992 158.118 59.384 155.974 59.384ZM155.974 54.944C157.142 54.944 158.15 54.744 158.998 54.344C159.846 53.944 160.494 53.376 160.942 52.64C161.406 51.904 161.638 51.024 161.638 50C161.638 48.976 161.406 48.096 160.942 47.36C160.494 46.624 159.846 46.056 158.998 45.656C158.15 45.256 157.142 45.056 155.974 45.056C154.822 45.056 153.822 45.256 152.974 45.656C152.126 46.056 151.47 46.624 151.006 47.36C150.542 48.096 150.31 48.976 150.31 50C150.31 51.024 150.542 51.904 151.006 52.64C151.47 53.376 152.126 53.944 152.974 54.344C153.822 54.744 154.822 54.944 155.974 54.944ZM184.416 48.2V51.8H171.24V48.2H184.416ZM174.624 50L173.448 57.224L171.432 54.968H185.208V59H168.48L169.848 50L168.48 41H185.088V45.032H171.432L173.448 42.776L174.624 50ZM198.718 51.152V48.128L207.55 59H201.43L195.598 51.464H198.046L192.19 59H186.142L195.022 48.152V51.128L186.67 41H192.886L198.166 47.816H195.718L200.926 41H207.046L198.718 51.152ZM212.473 55.544V51.536H224.881V55.544H212.473ZM222.049 41L230.233 59H224.929L218.065 43.112H219.505L212.617 59H207.313L215.497 41H222.049ZM234.938 41H252.602V59H247.61V43.16L249.866 45.416H237.722L239.81 43.76C239.938 44.816 240.026 45.832 240.074 46.808C240.122 47.768 240.146 48.68 240.146 49.544C240.146 51.848 239.938 53.728 239.522 55.184C239.106 56.624 238.45 57.68 237.554 58.352C236.658 59.024 235.498 59.36 234.074 59.36C233.45 59.36 232.834 59.296 232.226 59.168C231.634 59.04 231.09 58.848 230.594 58.592V54.464C231.298 54.736 231.946 54.872 232.538 54.872C233.578 54.872 234.322 54.4 234.77 53.456C235.234 52.512 235.466 50.968 235.466 48.824C235.466 47.784 235.418 46.616 235.322 45.32C235.242 44.024 235.114 42.584 234.938 41ZM255.938 59V41H260.834V56.384L259.466 56.072L269.666 41H276.17V59H271.25V43.328L272.642 43.64L262.25 59H255.938Z" fill="white"/>
<circle cx="50.5" cy="50.5" r="50.5" fill="#ECCF62"/>
<g clip-path="url(#clip0_15_263)">
<path d="M55.6142 34L48.4436 37.5853L45.2841 43.9044L56.0735 54.727L62.4146 51.5564L65.9999 44.3858L55.6142 34ZM58.9983 48.1401C58.0127 49.1257 56.4147 49.1257 55.4291 48.1401L51.8598 44.5709C50.8742 43.5852 50.8742 41.9872 51.8598 41.0016C52.8455 40.016 54.4435 40.016 55.4291 41.0016L58.9983 44.5709C59.9839 45.5565 59.9839 47.1545 58.9983 48.1401ZM50.0176 51.3082L45.6129 55.713L44.287 54.3871L48.6938 49.9803L46.2172 47.496L40.7107 53.0026V56.146H37.5672V59.2893H34.4239L34 62.8566L37.1434 65.9999L40.7107 65.5761V62.4327H43.854V59.2893H46.9974L52.4943 53.7925L50.0176 51.3082Z" fill="black"/>
</g>
<defs>
<clipPath id="clip0_15_263">
<rect width="32" height="32" fill="white" transform="translate(34 34)"/>
</clipPath>
</defs>
</svg>
