<svg width="336" height="109" viewBox="0 0 336 109" fill="none" xmlns="http://www.w3.org/2000/svg">
<g clip-path="url(#clip0_22_515)">
<path d="M23.8471 109C23.3929 109 22.9514 108.849 22.592 108.57C22.2325 108.29 21.9754 107.899 21.8608 107.457C20.8142 103.508 19.9221 99.4034 19.155 95.3468C13.3012 63.9833 15.5808 31.6312 25.7739 1.41225C25.9659 0.915825 26.3407 0.512966 26.8203 0.287451C27.3 0.0619356 27.8476 0.0311213 28.3493 0.201417C28.851 0.371712 29.2681 0.730009 29.5139 1.20179C29.7597 1.67358 29.8153 2.22254 29.6691 2.73451C19.7014 32.2814 17.4709 63.9143 23.1929 94.581C23.9422 98.5418 24.8283 102.527 25.8393 106.416C25.9755 106.944 25.8989 107.505 25.626 107.977C25.3532 108.448 24.9062 108.793 24.3823 108.934C24.2077 108.981 24.0277 109.003 23.8471 109Z" fill="#333333"/>
<path d="M20.0173 54.9371C31.0758 54.9371 40.0405 45.9179 40.0405 34.7921C40.0405 23.6662 31.0758 14.647 20.0173 14.647C8.95875 14.647 -0.00595093 23.6662 -0.00595093 34.7921C-0.00595093 45.9179 8.95875 54.9371 20.0173 54.9371Z" fill="#ECCF62"/>
<path d="M108.947 58.5748C107.818 56.1958 106.243 54.0586 104.309 52.2806C102.374 50.528 100.308 48.9278 98.1298 47.4941C95.8879 46.0283 93.6161 44.6222 91.3682 43.306C89.3006 42.1475 87.2993 40.8731 85.3737 39.4888C81.3893 36.4972 79.3614 33.1945 79.3614 29.6466V29.1978C79.3614 26.2063 80.301 23.8789 82.2338 22.1617C84.1782 20.4388 86.6964 19.5159 89.2868 19.577C91.9602 19.5437 94.59 20.2605 96.881 21.6472C99.1374 23.035 100.985 25.0033 102.233 27.3491C102.305 27.4792 102.417 27.5819 102.552 27.6414C102.688 27.7009 102.839 27.7138 102.983 27.6781C103.126 27.6422 103.254 27.5592 103.345 27.4422C103.437 27.3252 103.487 27.1809 103.488 27.032V22.425C103.486 22.2736 103.436 22.1268 103.345 22.0062C99.9972 17.7641 95.4121 15.6162 89.7209 15.6162C85.6354 15.6162 82.1446 16.8128 79.3376 19.1103C76.5307 21.4078 75.0559 24.884 75.0559 29.2816V29.9158C75.0502 32.7311 75.9056 35.4801 77.506 37.7896C79.1001 40.1347 81.1493 42.1312 83.5302 43.659C85.8614 45.1667 88.4047 46.7941 91.1601 48.5412C93.8956 50.2763 96.4528 51.9575 98.7662 53.5371C101.036 55.1 102.958 57.1213 104.41 59.4723C105.886 61.8392 106.66 64.5814 106.64 67.376V67.9204C106.64 72.5094 105.058 76.225 101.936 78.9712C98.8414 81.7237 94.8382 83.217 90.7081 83.1594C86.3847 83.1594 82.7214 82.1243 79.8312 80.0781C76.9352 78.0358 74.6404 75.2454 73.1885 72.0009C73.1257 71.8615 73.0174 71.748 72.8816 71.6792C72.7458 71.6104 72.5906 71.5904 72.442 71.6225C72.2933 71.6547 72.16 71.737 72.0643 71.8559C71.9686 71.9748 71.9162 72.1231 71.9159 72.2761V77.1523C71.9167 77.2844 71.956 77.4134 72.0289 77.5233C76.269 83.8893 82.3111 87.0962 89.9885 87.0962C95.8106 87.0962 100.776 85.3372 104.737 81.879C108.697 78.4208 110.755 73.6343 110.755 67.7409V66.8375C110.791 63.9802 110.172 61.1529 108.947 58.5748Z" fill="#333333"/>
<path d="M152.556 43.8442H149.684C149.507 43.8442 149.337 43.9148 149.213 44.0405C149.088 44.1662 149.017 44.3366 149.017 44.5143V68.1655C149.02 70.111 148.621 72.0358 147.845 73.8177C147.069 75.5996 145.933 77.1997 144.51 78.5163C143.15 79.9146 141.527 81.0256 139.734 81.7838C137.942 82.5421 136.017 82.9324 134.073 82.9318C132.183 82.9527 130.309 82.5718 128.575 81.814C126.841 81.0562 125.286 79.9385 124.011 78.5342C122.674 77.1656 121.619 75.5455 120.904 73.7664C120.19 71.9873 119.831 70.0842 119.848 68.1655V44.5143C119.848 44.3366 119.778 44.1662 119.653 44.0405C119.528 43.9148 119.359 43.8442 119.182 43.8442H116.315C116.138 43.8442 115.968 43.9146 115.842 44.0401C115.717 44.1656 115.645 44.3361 115.643 44.5143V68.1655C115.6 70.6123 116.047 73.0427 116.959 75.3116C117.87 77.5804 119.227 79.641 120.948 81.3702C122.646 83.1372 124.688 84.5324 126.946 85.4683C129.205 86.4042 131.631 86.8606 134.073 86.8088C140.739 86.8088 145.753 84.3259 149.017 79.4197V85.1455C149.017 85.3233 149.088 85.4937 149.213 85.6194C149.337 85.745 149.507 85.8156 149.684 85.8156H152.556C152.732 85.8141 152.901 85.743 153.025 85.6177C153.15 85.4923 153.22 85.3228 153.222 85.1455V44.5143C153.222 44.4263 153.205 44.3392 153.171 44.2579C153.138 44.1766 153.089 44.1027 153.027 44.0405C152.965 43.9783 152.892 43.9289 152.811 43.8952C152.73 43.8616 152.643 43.8442 152.556 43.8442Z" fill="#333333"/>
<path d="M191.127 48.2896C189.429 46.5234 187.387 45.1288 185.129 44.193C182.871 43.2572 180.445 42.8003 178.003 42.851C171.336 42.851 166.323 45.3339 163.058 50.2401V44.5143C163.058 44.3365 162.988 44.1661 162.863 44.0404C162.738 43.9148 162.569 43.8442 162.392 43.8442H159.52C159.343 43.8442 159.174 43.9148 159.049 44.0404C158.924 44.1661 158.854 44.3365 158.854 44.5143V85.1395C158.854 85.2275 158.871 85.3146 158.904 85.3959C158.938 85.4772 158.987 85.5511 159.049 85.6133C159.111 85.6755 159.184 85.7249 159.265 85.7586C159.346 85.7922 159.432 85.8096 159.52 85.8096H162.392C162.48 85.8096 162.566 85.7922 162.647 85.7586C162.728 85.7249 162.801 85.6755 162.863 85.6133C162.925 85.5511 162.974 85.4772 163.007 85.3959C163.041 85.3146 163.058 85.2275 163.058 85.1395V61.4883C163.054 59.5427 163.453 57.6177 164.229 55.8357C165.005 54.0537 166.142 52.4537 167.566 51.1375C168.925 49.7392 170.549 48.6283 172.341 47.87C174.134 47.1117 176.058 46.7214 178.003 46.722C179.892 46.7008 181.764 47.081 183.497 47.8378C185.23 48.5946 186.784 49.7108 188.059 51.1136C190.757 53.881 192.254 57.612 192.222 61.4883V85.1395C192.222 85.2275 192.239 85.3146 192.272 85.3959C192.306 85.4772 192.355 85.5511 192.417 85.6133C192.479 85.6755 192.552 85.7249 192.633 85.7586C192.714 85.7922 192.8 85.8096 192.888 85.8096H195.76C195.848 85.8096 195.934 85.7922 196.015 85.7586C196.096 85.7249 196.169 85.6755 196.231 85.6133C196.293 85.5511 196.342 85.4772 196.375 85.3959C196.409 85.3146 196.426 85.2275 196.426 85.1395V61.4883C196.469 59.043 196.022 56.614 195.112 54.3464C194.202 52.0787 192.847 50.0188 191.127 48.2896Z" fill="#333333"/>
<path d="M243.912 16.7529H241.04C240.863 16.7529 240.694 16.8235 240.569 16.9492C240.444 17.0749 240.374 17.2453 240.374 17.423V51.9515C238.669 49.4587 236.417 47.3949 233.791 45.9205C230.442 43.9332 226.629 42.8742 222.741 42.8512C219.841 42.8067 216.963 43.3579 214.282 44.471C211.601 45.5841 209.173 47.2358 207.148 49.3249C205.112 51.3533 203.495 53.7678 202.392 56.4286C201.289 59.0895 200.721 61.944 200.721 64.8271C200.721 67.7102 201.289 70.5647 202.392 73.2256C203.495 75.8864 205.112 78.3009 207.148 80.3293C209.173 82.419 211.6 84.071 214.281 85.1841C216.962 86.2973 219.841 86.8481 222.741 86.803C226.55 86.769 230.283 85.7269 233.565 83.7815C236.256 82.2646 238.581 80.1685 240.374 77.6429V85.1397C240.374 85.2277 240.391 85.3148 240.424 85.3961C240.458 85.4774 240.507 85.5513 240.569 85.6135C240.631 85.6758 240.704 85.7251 240.785 85.7588C240.866 85.7925 240.952 85.8098 241.04 85.8098H243.912C244 85.8098 244.086 85.7925 244.167 85.7588C244.248 85.7251 244.321 85.6758 244.383 85.6135C244.445 85.5513 244.494 85.4774 244.528 85.3961C244.561 85.3148 244.578 85.2277 244.578 85.1397V17.435C244.58 17.346 244.564 17.2576 244.531 17.1749C244.498 17.0922 244.449 17.0169 244.387 16.9534C244.325 16.8899 244.251 16.8395 244.17 16.8051C244.088 16.7706 244.001 16.7529 243.912 16.7529ZM222.646 46.7222C225.003 46.7105 227.337 47.188 229.502 48.1248C231.667 49.0616 233.617 50.4376 235.23 52.1669C236.923 53.823 238.267 55.8057 239.182 57.9964C240.096 60.1871 240.562 62.5408 240.552 64.9168C240.481 69.6798 238.566 74.2269 235.215 77.5913C231.863 80.9557 227.339 82.8717 222.604 82.9319C220.268 82.9575 217.952 82.4954 215.803 81.5747C213.653 80.654 211.717 79.2949 210.116 77.583C206.781 74.1918 204.915 69.6115 204.924 64.8412C204.933 60.0708 206.816 55.4976 210.164 52.119C211.759 50.399 213.693 49.0311 215.842 48.1021C217.99 47.1731 220.307 46.7033 222.646 46.7222Z" fill="#333333"/>
<path d="M292.338 43.8445H289.465C289.289 43.8445 289.119 43.9151 288.995 44.0408C288.87 44.1664 288.799 44.3369 288.799 44.5146V51.9635C287.205 49.4925 285.035 47.4509 282.478 46.0163C279.06 43.9656 275.158 42.8728 271.179 42.8513C268.288 42.8149 265.42 43.37 262.748 44.4828C260.077 45.5956 257.659 47.243 255.64 49.325C253.589 51.3456 251.96 53.7575 250.849 56.4194C249.737 59.0813 249.164 61.9397 249.164 64.8272C249.164 67.7146 249.737 70.5731 250.849 73.235C251.96 75.8969 253.589 78.3088 255.64 80.3294C257.659 82.4113 260.077 84.0587 262.748 85.1716C265.42 86.2844 268.288 86.8395 271.179 86.8031C275.09 86.808 278.929 85.7451 282.288 83.7278C284.91 82.1989 287.148 80.0843 288.829 77.5472V85.1398C288.829 85.2278 288.846 85.3149 288.88 85.3962C288.913 85.4775 288.962 85.5514 289.024 85.6136C289.086 85.6759 289.16 85.7252 289.24 85.7589C289.321 85.7926 289.408 85.8099 289.495 85.8099H292.368C292.455 85.8099 292.542 85.7926 292.622 85.7589C292.703 85.7252 292.777 85.6759 292.839 85.6136C292.9 85.5514 292.949 85.4775 292.983 85.3962C293.016 85.3149 293.034 85.2278 293.034 85.1398V44.5146C293.034 44.424 293.016 44.3344 292.98 44.251C292.945 44.1677 292.893 44.0925 292.828 44.0299C292.763 43.9672 292.686 43.9185 292.602 43.8866C292.518 43.8548 292.428 43.8404 292.338 43.8445ZM288.978 64.8691C289 67.2297 288.553 69.571 287.661 71.7547C286.769 73.9383 285.452 75.9202 283.786 77.5831C282.185 79.2944 280.248 80.6532 278.099 81.5738C275.949 82.4944 273.634 82.9569 271.298 82.932C266.561 82.8749 262.034 80.9602 258.68 77.5955C255.326 74.2308 253.409 69.6819 253.338 64.9169C253.332 62.5388 253.803 60.1839 254.723 57.9931C255.642 55.8024 256.992 53.8208 258.69 52.167C260.302 50.4382 262.251 49.0624 264.415 48.1256C266.579 47.1888 268.912 46.7111 271.268 46.7223C273.607 46.7017 275.924 47.1697 278.074 48.0966C280.223 49.0234 282.158 50.3891 283.756 52.1071C285.431 53.7747 286.756 55.7634 287.653 57.9555C288.55 60.1477 289 62.4986 288.978 64.8691Z" fill="#333333"/>
<path d="M335.334 43.8442H332.462C332.285 43.8442 332.116 43.9148 331.991 44.0405C331.866 44.1662 331.796 44.3366 331.796 44.5143V68.1655C331.805 70.0978 331.426 72.012 330.681 73.7929C329.936 75.5739 328.841 77.1846 327.46 78.5282C326.136 79.9202 324.545 81.028 322.783 81.7848C321.022 82.5416 319.126 82.9317 317.211 82.9317C315.295 82.9317 313.4 82.5416 311.638 81.7848C309.877 81.028 308.286 79.9202 306.961 78.5282C305.581 77.1846 304.485 75.5739 303.74 73.7929C302.995 72.012 302.616 70.0978 302.626 68.1655V44.5143C302.626 44.3366 302.556 44.1662 302.431 44.0405C302.306 43.9148 302.137 43.8442 301.96 43.8442H299.088C298.911 43.8442 298.741 43.9148 298.617 44.0405C298.492 44.1662 298.422 44.3366 298.422 44.5143V68.1655C298.393 70.6206 298.865 73.0554 299.81 75.3195C300.754 77.5835 302.149 79.6286 303.911 81.3283C305.629 83.0933 307.686 84.4891 309.956 85.4311C312.226 86.3732 314.663 86.8418 317.119 86.8088C323.708 86.8088 328.632 84.4156 331.796 79.7607V84.1523C331.764 88.3229 330.104 92.3138 327.174 95.2635C324.243 98.2132 320.277 99.8849 316.131 99.9178C313.216 99.8972 310.367 99.0399 307.919 97.4468C305.284 95.7821 303.097 93.4911 301.55 90.7756C301.476 90.6507 301.365 90.5526 301.232 90.4956C301.1 90.4386 300.953 90.4256 300.812 90.4585C300.671 90.4936 300.546 90.5739 300.455 90.6873C300.363 90.8007 300.311 90.941 300.307 91.0868L300.122 95.598C300.121 95.7526 300.169 95.9036 300.259 96.0288C304.142 101.18 309.483 103.807 316.131 103.807C318.744 103.836 321.336 103.34 323.756 102.349C326.176 101.358 328.375 99.8914 330.225 98.0351C332.075 96.1789 333.539 93.9702 334.53 91.5382C335.522 89.1062 336.021 86.4997 336 83.8711V44.5143C336 44.3366 335.93 44.1662 335.805 44.0405C335.68 43.9148 335.511 43.8442 335.334 43.8442Z" fill="#333333"/>
</g>
<defs>
<clipPath id="clip0_22_515">
<rect width="336" height="109" fill="white"/>
</clipPath>
</defs>
</svg>
