<svg width="85" height="14" viewBox="0 0 85 14" fill="none" xmlns="http://www.w3.org/2000/svg">
<path d="M0.344 -9.53674e-07H2.2V13.568H0.344V-9.53674e-07ZM4.89088 -9.53674e-07H6.74688V13.568H4.89088V-9.53674e-07ZM9.43775 -9.53674e-07H11.2938V13.568H9.43775V-9.53674e-07ZM13.9846 -9.53674e-07H15.8406V13.568H13.9846V-9.53674e-07ZM18.5315 -9.53674e-07H20.3875V13.568H18.5315V-9.53674e-07ZM23.0784 -9.53674e-07H24.9344V13.568H23.0784V-9.53674e-07ZM27.6253 -9.53674e-07H29.4813V13.568H27.6253V-9.53674e-07ZM32.1721 -9.53674e-07H34.0281V13.568H32.1721V-9.53674e-07ZM36.719 -9.53674e-07H38.575V13.568H36.719V-9.53674e-07ZM41.2659 -9.53674e-07H43.1219V13.568H41.2659V-9.53674e-07ZM45.8128 -9.53674e-07H47.6688V13.568H45.8128V-9.53674e-07ZM50.3596 -9.53674e-07H52.2156V13.568H50.3596V-9.53674e-07ZM54.9065 -9.53674e-07H56.7625V13.568H54.9065V-9.53674e-07ZM59.4534 -9.53674e-07H61.3094V13.568H59.4534V-9.53674e-07ZM64.0003 -9.53674e-07H65.8563V13.568H64.0003V-9.53674e-07ZM68.5471 -9.53674e-07H70.4031V13.568H68.5471V-9.53674e-07ZM73.094 -9.53674e-07H74.95V13.568H73.094V-9.53674e-07ZM77.6409 -9.53674e-07H79.4969V13.568H77.6409V-9.53674e-07ZM82.1878 -9.53674e-07H84.0438V13.568H82.1878V-9.53674e-07Z" fill="#7A7D68"/>
</svg>
