<svg width="26" height="32" viewBox="0 0 26 32" fill="none" xmlns="http://www.w3.org/2000/svg">
<path d="M3.625 32H22.375C23.9259 32 25.1875 30.7384 25.1875 29.1875V9.375H18.625C17.0741 9.375 15.8125 8.11337 15.8125 6.5625V0H3.625C2.07413 0 0.8125 1.26163 0.8125 2.8125V29.1875C0.8125 30.7384 2.07413 32 3.625 32ZM7.375 13.1875H18.625C19.1432 13.1875 19.5625 13.6068 19.5625 14.125C19.5625 14.6432 19.1432 15.0625 18.625 15.0625H7.375C6.85681 15.0625 6.4375 14.6432 6.4375 14.125C6.4375 13.6068 6.85681 13.1875 7.375 13.1875ZM7.375 16.9375H18.625C19.1432 16.9375 19.5625 17.3568 19.5625 17.875C19.5625 18.3932 19.1432 18.8125 18.625 18.8125H7.375C6.85681 18.8125 6.4375 18.3932 6.4375 17.875C6.4375 17.3568 6.85681 16.9375 7.375 16.9375ZM7.375 20.6875H18.625C19.1432 20.6875 19.5625 21.1068 19.5625 21.625C19.5625 22.1432 19.1432 22.5625 18.625 22.5625H7.375C6.85681 22.5625 6.4375 22.1432 6.4375 21.625C6.4375 21.1068 6.85681 20.6875 7.375 20.6875ZM7.375 24.4375H14.875C15.3932 24.4375 15.8125 24.8568 15.8125 25.375C15.8125 25.8932 15.3932 26.3125 14.875 26.3125H7.375C6.85681 26.3125 6.4375 25.8932 6.4375 25.375C6.4375 24.8568 6.85681 24.4375 7.375 24.4375Z" fill="#333333"/>
</svg>
