<svg width="28" height="32" viewBox="0 0 28 32" fill="none" xmlns="http://www.w3.org/2000/svg">
<path d="M25.9732 0H23.5446C22.5107 0 21.6696 0.841125 21.6696 1.875V4.30356H19.241V2.14062L8.75892 2.14512V4.30356H6.33036V1.875C6.33036 0.841125 5.48923 0 4.45536 0H2.02679C0.992919 0 0.151794 0.841125 0.151794 1.875V8.60713C0.151794 9.641 0.992919 10.4821 2.02679 10.4821H4.45536C5.48923 10.4821 6.33036 9.641 6.33036 8.60713V6.17856H8.75892V7.78119L10.4777 9.5H17.543L19.241 7.85019V6.17856H21.6696V8.60713C21.6696 9.641 22.5107 10.4821 23.5446 10.4821H25.9732C27.007 10.4821 27.8482 9.641 27.8482 8.60713V1.875C27.8482 0.841125 27.007 0 25.9732 0ZM25.9732 21.5179H23.5446C22.5107 21.5179 21.6696 22.359 21.6696 23.3929V25.8214H18.0701C17.9108 24.9953 17.5566 24.1404 17.0558 23.409C16.4545 22.5309 15.7235 21.9369 14.9374 21.6731V19.0893H16.3986L16.9589 11.375H11.0412L11.6014 19.0893H13.0625V21.6731C12.2764 21.9369 11.5454 22.5309 10.9441 23.409C10.4433 24.1404 10.0891 24.9953 9.92979 25.8214H6.33029V23.3929C6.33029 22.359 5.48917 21.5179 4.45529 21.5179H2.02679C0.992919 21.5179 0.151794 22.359 0.151794 23.3929V30.125C0.151794 31.1589 0.992919 32 2.02679 32H4.45536C5.48923 32 6.33036 31.1589 6.33036 30.125V27.6964H9.94254C10.3691 29.5429 12.0257 30.9241 14 30.9241C15.9744 30.9241 17.631 29.543 18.0575 27.6964H21.6697V30.125C21.6697 31.1589 22.5109 32 23.5447 32H25.9733C27.0072 32 27.8483 31.1589 27.8483 30.125V23.3929C27.8482 22.359 27.007 21.5179 25.9732 21.5179Z" fill="#333333"/>
</svg>
