<svg width="32" height="28" viewBox="0 0 32 28" fill="none" xmlns="http://www.w3.org/2000/svg">
<path d="M15.0625 0.197144C11.4486 0.404581 8.05962 1.80889 5.35456 4.21971L9.53806 8.40321C11.1124 7.09252 13.0241 6.30046 15.0625 6.11421V0.197144ZM8.21181 9.72858L4.02838 5.54514C1.6155 8.24946 0.209437 11.6387 0.0006875 15.2535H5.918C6.1055 13.2146 6.89925 11.3028 8.21181 9.72858ZM26.082 15.2535H31.9993C31.7906 11.6387 30.3846 8.24946 27.9716 5.54514L23.7882 9.72858C25.1007 11.3028 25.8945 13.2146 26.082 15.2535ZM26.0807 17.1285C25.9492 18.5724 25.5372 19.7768 25.0498 20.7428C25.4302 21.3293 25.8081 21.9175 26.1835 22.5071C26.8966 23.6279 26.7388 25.0665 25.7995 26.0058C25.5753 26.2305 25.3146 26.4157 25.0286 26.5535L26.0029 27.5278C26.09 27.6152 26.1936 27.6844 26.3075 27.7316C26.4215 27.7788 26.5436 27.8031 26.667 27.8029C26.9074 27.8029 27.1477 27.7112 27.331 27.5278C30.1388 24.7204 31.7759 21.057 32 17.1285H26.0807ZM5.91937 17.1285H0C0.224063 21.057 1.86125 24.7204 4.66894 27.5279C4.85231 27.7113 5.09263 27.803 5.33294 27.803C5.57325 27.803 5.81363 27.7112 5.997 27.5279L8.8415 24.6832C9.20819 24.3165 9.20819 23.7218 8.8415 23.3551C8.09919 22.6128 6.22937 20.5345 5.91937 17.1285ZM26.6454 4.21971C23.9404 1.80883 20.5514 0.404581 16.9375 0.197144V6.11421C18.9759 6.30046 20.8876 7.09252 22.4619 8.40321L26.6454 4.21971ZM18.0831 14.1236C16.9346 12.975 15.0657 12.975 13.9171 14.1236C12.7686 15.2721 12.7686 17.141 13.9171 18.2896C15.3681 19.7406 22.4991 24.2937 23.3074 24.8081C23.4874 24.9226 23.701 24.9723 23.9131 24.949C24.1251 24.9258 24.3228 24.8309 24.4737 24.6801C24.6245 24.5292 24.7194 24.3315 24.7427 24.1194C24.7659 23.9074 24.7162 23.6938 24.6017 23.5138C24.0873 22.7055 19.5341 15.5745 18.0831 14.1236Z" fill="black"/>
</svg>
