<svg width="32" height="30" viewBox="0 0 32 30" fill="none" xmlns="http://www.w3.org/2000/svg">
<path d="M4.6875 14.0625V8.31875C6.30312 7.90125 7.5 6.43188 7.5 4.6875C7.5 2.62 5.8175 0.9375 3.75 0.9375C1.6825 0.9375 0 2.62 0 4.6875C0 6.43188 1.19687 7.90125 2.8125 8.31875V21.6812C1.19687 22.0987 0 23.5681 0 25.3125C0 27.38 1.6825 29.0625 3.75 29.0625C5.8175 29.0625 7.5 27.38 7.5 25.3125C7.5 23.5681 6.30312 22.0987 4.6875 21.6812V15.9375H10.4537C10.3487 15.3169 10.3487 14.6831 10.4537 14.0625H4.6875ZM27.3125 15.9438V18.75C27.3125 19.2675 27.7325 19.6875 28.25 19.6875C28.7675 19.6875 29.1875 19.2675 29.1875 18.75V8.31875C30.8031 7.90125 32 6.43188 32 4.6875C32 2.62 30.3175 0.9375 28.25 0.9375C26.1825 0.9375 24.5 2.62 24.5 4.6875C24.5 6.43188 25.6969 7.90125 27.3125 8.31875V14.0688L21.5456 14.0594C21.6489 14.6606 21.6537 15.3091 21.5469 15.9344L27.3125 15.9438ZM16.9375 21.6812V20.5462C16.3169 20.6513 15.6831 20.6513 15.0625 20.5462V21.6812C13.4469 22.0987 12.25 23.5681 12.25 25.3125C12.25 27.38 13.9325 29.0625 16 29.0625C18.0675 29.0625 19.75 27.38 19.75 25.3125C19.75 23.5681 18.5531 22.0987 16.9375 21.6812ZM16 0.9375C13.9325 0.9375 12.25 2.62 12.25 4.6875C12.25 6.43188 13.4469 7.90125 15.0625 8.31875V9.45375C15.6831 9.34872 16.3169 9.34872 16.9375 9.45375V8.31875C18.5531 7.90125 19.75 6.43188 19.75 4.6875C19.75 2.62 18.0675 0.9375 16 0.9375Z" fill="black"/>
<path d="M16 18.75C18.0711 18.75 19.75 17.0711 19.75 15C19.75 12.9289 18.0711 11.25 16 11.25C13.9289 11.25 12.25 12.9289 12.25 15C12.25 17.0711 13.9289 18.75 16 18.75Z" fill="black"/>
<path d="M28.2483 20.8594H26.3765C25.8587 20.8594 25.439 21.2791 25.439 21.7969V28.125C25.439 28.6427 25.8587 29.0625 26.3765 29.0625C26.8942 29.0625 27.314 28.6427 27.314 28.125V26.4844H28.1827C28.6997 26.4844 29.1202 26.9049 29.1202 27.4219V28.125C29.1202 28.6427 29.54 29.0625 30.0577 29.0625C30.5755 29.0625 30.9952 28.6427 30.9952 28.125C30.9463 27.7387 31.2148 26.6303 30.3087 25.5837C31.974 23.7902 30.692 20.8594 28.2483 20.8594ZM28.2483 24.6094H27.314V22.7344H28.2483C28.7653 22.7344 29.1858 23.1549 29.1858 23.6719C29.1858 24.1888 28.7653 24.6094 28.2483 24.6094Z" fill="black"/>
</svg>
