<svg width="32" height="32" viewBox="0 0 32 32" fill="none" xmlns="http://www.w3.org/2000/svg">
<path d="M16 0C12.8355 0 9.74207 0.938384 7.11088 2.69649C4.4797 4.45459 2.42894 6.95345 1.21793 9.87707C0.00693251 12.8007 -0.309921 16.0177 0.307443 19.1214C0.924806 22.2251 2.44866 25.0761 4.6863 27.3137C6.92394 29.5513 9.77487 31.0752 12.8786 31.6926C15.9823 32.3099 19.1993 31.9931 22.1229 30.7821C25.0466 29.5711 27.5454 27.5203 29.3035 24.8891C31.0616 22.2579 32 19.1645 32 16C32 11.7565 30.3143 7.68687 27.3137 4.68629C24.3131 1.68571 20.2435 0 16 0ZM14.6632 9.10737C14.715 9.03151 14.7883 8.97286 14.8737 8.93895C15.0088 8.88681 15.1505 8.85351 15.2947 8.84C15.529 8.81598 15.7645 8.80543 16 8.80842C16.2266 8.80557 16.4531 8.81824 16.6779 8.84632C16.8219 8.86217 16.9634 8.89612 17.099 8.94737C17.188 8.98078 17.2661 9.03838 17.3242 9.11368C17.3699 9.18134 17.3935 9.26153 17.3916 9.34316L17.1305 18.6779C17.125 18.7436 17.1041 18.807 17.0695 18.8632C17.0245 18.9266 16.9614 18.975 16.8884 19.0021C16.7766 19.0473 16.6589 19.0763 16.539 19.0884C16.1788 19.1305 15.8149 19.1305 15.4547 19.0884C15.3369 19.0759 15.2214 19.0468 15.1116 19.0021C15.0387 18.975 14.9756 18.9266 14.9305 18.8632C14.896 18.807 14.875 18.7436 14.8695 18.6779L14.6021 9.34316C14.6011 9.26052 14.6221 9.17911 14.6632 9.10737ZM17.3832 22.4C17.3484 22.5729 17.266 22.7326 17.1453 22.8611C17.0222 22.9843 16.8679 23.0716 16.699 23.1137C16.4704 23.17 16.2354 23.1962 16 23.1916C15.7632 23.196 15.5269 23.1698 15.2968 23.1137C15.1267 23.0731 14.9713 22.9856 14.8484 22.8611C14.7312 22.731 14.6512 22.5717 14.6168 22.4C14.5691 22.1666 14.5472 21.9287 14.5516 21.6905C14.547 21.4468 14.5689 21.2032 14.6168 20.9642C14.6518 20.7896 14.7316 20.627 14.8484 20.4926C14.9698 20.3654 15.1256 20.2761 15.2968 20.2358C15.5267 20.1786 15.7632 20.1524 16 20.1579C16.2354 20.1523 16.4705 20.1785 16.699 20.2358C16.869 20.2776 17.0237 20.3666 17.1453 20.4926C17.2657 20.6254 17.348 20.7884 17.3832 20.9642C17.4311 21.2032 17.453 21.4468 17.4484 21.6905C17.4528 21.9287 17.4309 22.1666 17.3832 22.4Z" fill="#333333"/>
</svg>
