<svg width="198" height="64" viewBox="0 0 198 64" fill="none" xmlns="http://www.w3.org/2000/svg">
<g clip-path="url(#clip0_3_12)">
<path d="M14.0527 64C13.7851 64.0001 13.5249 63.9112 13.3131 63.7472C13.1013 63.5831 12.9498 63.3533 12.8823 63.0937C12.2655 60.7751 11.7398 58.3651 11.2877 55.9833C7.83818 37.568 9.18153 18.5723 15.1882 0.829073C15.3013 0.537596 15.5222 0.301055 15.8048 0.168643C16.0875 0.0362299 16.4102 0.0181371 16.7058 0.118127C17.0014 0.218117 17.2472 0.428493 17.3921 0.705505C17.537 0.982517 17.5697 1.30484 17.4836 1.60545C11.6097 18.9541 10.2953 37.5275 13.6672 55.5337C14.1088 57.8593 14.631 60.1989 15.2267 62.4824C15.307 62.7926 15.2618 63.122 15.101 63.399C14.9402 63.676 14.6768 63.8781 14.3681 63.9614C14.2653 63.9886 14.1591 64.0016 14.0527 64Z" fill="white"/>
<path d="M11.7959 32.2565C18.3125 32.2565 23.5953 26.9607 23.5953 20.4282C23.5953 13.8956 18.3125 8.59985 11.7959 8.59985C5.27926 8.59985 -0.00350952 13.8956 -0.00350952 20.4282C-0.00350952 26.9607 5.27926 32.2565 11.7959 32.2565Z" fill="#ECCF62"/>
<path d="M64.2011 34.3924C63.5358 32.9955 62.6077 31.7406 61.4676 30.6967C60.3276 29.6676 59.1103 28.7281 57.8265 27.8863C56.5053 27.0256 55.1666 26.2 53.842 25.4272C52.6236 24.747 51.4442 23.9987 50.3095 23.1859C47.9615 21.4294 46.7665 19.4902 46.7665 17.407V17.1435C46.7665 15.387 47.3202 14.0204 48.4592 13.0122C49.605 12.0006 51.089 11.4587 52.6154 11.4946C54.1908 11.475 55.7405 11.8959 57.0906 12.7101C58.4202 13.525 59.509 14.6807 60.2446 16.058C60.2867 16.1344 60.3528 16.1947 60.4326 16.2296C60.5125 16.2646 60.6016 16.2721 60.6861 16.2512C60.7708 16.2301 60.846 16.1814 60.8999 16.1127C60.9539 16.044 60.9834 15.9592 60.984 15.8718V13.1668C60.983 13.0779 60.9535 12.9917 60.8999 12.9209C58.9269 10.4301 56.225 9.16896 52.8712 9.16896C50.4637 9.16896 48.4066 9.87156 46.7525 11.2206C45.0984 12.5696 44.2293 14.6106 44.2293 17.1927V17.5651C44.226 19.2181 44.7301 20.8321 45.6732 22.1882C46.6126 23.5651 47.8201 24.7374 49.2231 25.6344C50.5969 26.5197 52.0956 27.4753 53.7193 28.5011C55.3314 29.5198 56.8383 30.507 58.2015 31.4344C59.5393 32.3521 60.6719 33.5389 61.5272 34.9193C62.3974 36.3091 62.8533 37.9192 62.8413 39.56V39.8797C62.8413 42.5742 61.9092 44.7557 60.0693 46.3682C58.2458 47.9844 55.8868 48.8611 53.453 48.8273C50.9053 48.8273 48.7465 48.2196 47.0434 47.0181C45.3368 45.819 43.9845 44.1806 43.1289 42.2756C43.0919 42.1937 43.0281 42.1271 42.9481 42.0867C42.868 42.0463 42.7766 42.0345 42.689 42.0534C42.6014 42.0723 42.5229 42.1206 42.4665 42.1905C42.4101 42.2603 42.3792 42.3473 42.379 42.4372V45.3003C42.3795 45.3778 42.4026 45.4535 42.4456 45.5181C44.9442 49.2559 48.5047 51.1389 53.0289 51.1389C56.4598 51.1389 59.386 50.1061 61.7199 48.0755C64.0539 46.045 65.2664 43.2346 65.2664 39.7743V39.2438C65.2875 37.5661 64.9229 35.9061 64.2011 34.3924Z" fill="white"/>
<path d="M89.899 25.7433H88.2064C88.1023 25.7433 88.0024 25.7848 87.9288 25.8586C87.8552 25.9324 87.8139 26.0325 87.8139 26.1368V40.0237C87.8156 41.166 87.5804 42.2962 87.1231 43.3424C86.6658 44.3887 85.9964 45.3282 85.1575 46.1012C84.3563 46.9223 83.3996 47.5746 82.3434 48.0198C81.2872 48.465 80.153 48.6942 79.0072 48.6938C77.8933 48.7061 76.7893 48.4825 75.7675 48.0375C74.7457 47.5926 73.8291 46.9363 73.0778 46.1118C72.2901 45.3082 71.6681 44.3569 71.2472 43.3123C70.8263 42.2677 70.6148 41.1503 70.6247 40.0237V26.1368C70.6247 26.0325 70.5833 25.9324 70.5097 25.8586C70.4361 25.7848 70.3363 25.7433 70.2322 25.7433H68.543C68.4386 25.7433 68.3384 25.7847 68.2642 25.8584C68.1901 25.9321 68.148 26.0321 68.147 26.1368V40.0237C68.1214 41.4604 68.385 42.8874 68.9221 44.2196C69.4592 45.5517 70.2587 46.7616 71.273 47.7769C72.2733 48.8145 73.4766 49.6337 74.8075 50.1832C76.1384 50.7327 77.5682 51.0006 79.0072 50.9703C82.9357 50.9703 85.8899 49.5124 87.8139 46.6317V49.9936C87.8139 50.098 87.8552 50.1981 87.9288 50.2719C88.0024 50.3457 88.1023 50.3871 88.2064 50.3871H89.899C90.0028 50.3862 90.1021 50.3444 90.1755 50.2709C90.2489 50.1973 90.2906 50.0977 90.2915 49.9936V26.1368C90.2915 26.0851 90.2813 26.034 90.2616 25.9862C90.2419 25.9385 90.213 25.8951 90.1765 25.8586C90.1401 25.8221 90.0968 25.7931 90.0492 25.7733C90.0016 25.7535 89.9505 25.7433 89.899 25.7433Z" fill="white"/>
<path d="M112.629 28.3535C111.628 27.3165 110.425 26.4976 109.094 25.9482C107.763 25.3987 106.333 25.1305 104.894 25.1602C100.966 25.1602 98.0118 26.6181 96.0878 29.4988V26.1368C96.0878 26.0325 96.0465 25.9324 95.9729 25.8586C95.8993 25.7848 95.7994 25.7433 95.6953 25.7433H94.0027C93.8986 25.7433 93.7988 25.7848 93.7252 25.8586C93.6515 25.9324 93.6102 26.0325 93.6102 26.1368V49.9901C93.6102 50.0418 93.6204 50.093 93.6401 50.1407C93.6598 50.1884 93.6887 50.2318 93.7252 50.2684C93.7616 50.3049 93.8049 50.3339 93.8525 50.3536C93.9001 50.3734 93.9511 50.3836 94.0027 50.3836H95.6953C95.7469 50.3836 95.7979 50.3734 95.8455 50.3536C95.8932 50.3339 95.9364 50.3049 95.9729 50.2684C96.0093 50.2318 96.0382 50.1884 96.0579 50.1407C96.0777 50.093 96.0878 50.0418 96.0878 49.9901V36.1032C96.0857 34.9609 96.3207 33.8306 96.778 32.7842C97.2354 31.7379 97.9049 30.7985 98.7442 30.0257C99.5454 29.2047 100.502 28.5524 101.558 28.1071C102.614 27.6619 103.749 27.4328 104.894 27.4331C106.008 27.4207 107.111 27.6439 108.132 28.0882C109.153 28.5326 110.069 29.188 110.82 30.0117C112.41 31.6365 113.293 33.8272 113.274 36.1032V49.9901C113.274 50.0418 113.284 50.093 113.303 50.1407C113.323 50.1884 113.352 50.2318 113.388 50.2684C113.425 50.3049 113.468 50.3339 113.516 50.3536C113.563 50.3734 113.614 50.3836 113.666 50.3836H115.359C115.41 50.3836 115.461 50.3734 115.509 50.3536C115.556 50.3339 115.6 50.3049 115.636 50.2684C115.673 50.2318 115.702 50.1884 115.721 50.1407C115.741 50.093 115.751 50.0418 115.751 49.9901V36.1032C115.777 34.6674 115.513 33.2413 114.977 31.9098C114.44 30.5783 113.642 29.3688 112.629 28.3535Z" fill="white"/>
<path d="M143.734 9.83643H142.041C141.937 9.83643 141.837 9.87788 141.764 9.95167C141.69 10.0255 141.649 10.1255 141.649 10.2299V30.5035C140.644 29.0398 139.317 27.8281 137.769 26.9623C135.796 25.7955 133.549 25.1737 131.258 25.1602C129.549 25.1341 127.853 25.4577 126.273 26.1113C124.693 26.7648 123.263 27.7346 122.07 28.9612C120.87 30.1522 119.917 31.5699 119.267 33.1322C118.617 34.6946 118.282 36.3706 118.282 38.0635C118.282 39.7563 118.617 41.4323 119.267 42.9947C119.917 44.557 120.87 45.9747 122.07 47.1657C123.263 48.3926 124.693 49.3626 126.273 50.0162C127.853 50.6698 129.549 50.9932 131.258 50.9667C133.503 50.9468 135.702 50.3349 137.636 49.1927C139.222 48.302 140.592 47.0712 141.649 45.5883V49.9901C141.649 50.0418 141.659 50.093 141.679 50.1407C141.698 50.1884 141.727 50.2318 141.764 50.2683C141.8 50.3049 141.844 50.3339 141.891 50.3536C141.939 50.3734 141.99 50.3836 142.041 50.3836H143.734C143.786 50.3836 143.837 50.3734 143.884 50.3536C143.932 50.3339 143.975 50.3049 144.012 50.2683C144.048 50.2318 144.077 50.1884 144.097 50.1407C144.116 50.093 144.126 50.0418 144.126 49.9901V10.2369C144.127 10.1847 144.118 10.1327 144.099 10.0842C144.079 10.0356 144.051 9.99142 144.014 9.95414C143.977 9.91686 143.934 9.88724 143.886 9.86703C143.838 9.84682 143.786 9.83642 143.734 9.83643ZM131.202 27.4331C132.591 27.4262 133.966 27.7065 135.242 28.2566C136.518 28.8066 137.667 29.6146 138.618 30.6299C139.615 31.6023 140.408 32.7665 140.946 34.0528C141.485 35.339 141.76 36.721 141.754 38.1162C141.712 40.9127 140.584 43.5826 138.609 45.558C136.633 47.5334 133.967 48.6585 131.178 48.6938C129.801 48.7088 128.436 48.4375 127.17 47.8969C125.903 47.3563 124.762 46.5583 123.818 45.5532C121.853 43.562 120.753 40.8727 120.759 38.0717C120.764 35.2708 121.874 32.5856 123.846 30.6018C124.787 29.5919 125.926 28.7888 127.192 28.2433C128.459 27.6978 129.824 27.4219 131.202 27.4331Z" fill="white"/>
<path d="M172.271 25.7433H170.578C170.474 25.7433 170.374 25.7848 170.3 25.8586C170.227 25.9324 170.185 26.0324 170.185 26.1368V30.5105C169.246 29.0596 167.967 27.8608 166.46 27.0185C164.446 25.8145 162.147 25.1728 159.802 25.1602C158.098 25.1388 156.408 25.4647 154.834 26.1181C153.26 26.7715 151.835 27.7388 150.645 28.9612C149.437 30.1476 148.477 31.5638 147.821 33.1268C147.166 34.6897 146.829 36.3681 146.829 38.0634C146.829 39.7588 147.166 41.4372 147.821 43.0001C148.477 44.5631 149.437 45.9793 150.645 47.1657C151.835 48.3881 153.26 49.3554 154.834 50.0088C156.408 50.6622 158.098 50.9881 159.802 50.9667C162.107 50.9696 164.369 50.3455 166.348 49.161C167.893 48.2633 169.212 47.0218 170.203 45.5321V49.9901C170.203 50.0418 170.213 50.0929 170.233 50.1407C170.253 50.1884 170.281 50.2318 170.318 50.2683C170.354 50.3049 170.398 50.3338 170.445 50.3536C170.493 50.3734 170.544 50.3836 170.595 50.3836H172.288C172.34 50.3836 172.391 50.3734 172.438 50.3536C172.486 50.3338 172.529 50.3049 172.566 50.2683C172.602 50.2318 172.631 50.1884 172.651 50.1407C172.67 50.0929 172.681 50.0418 172.681 49.9901V26.1368C172.681 26.0836 172.67 26.031 172.649 25.982C172.628 25.9331 172.598 25.8889 172.559 25.8522C172.521 25.8154 172.476 25.7868 172.426 25.7681C172.376 25.7494 172.324 25.741 172.271 25.7433ZM170.291 38.088C170.304 39.4741 170.04 40.8488 169.514 42.131C168.989 43.4131 168.213 44.5768 167.231 45.5532C166.287 46.5579 165.146 47.3558 163.88 47.8963C162.613 48.4369 161.248 48.7084 159.872 48.6938C157.081 48.6603 154.413 47.536 152.436 45.5605C150.46 43.5849 149.33 40.9139 149.288 38.1161C149.285 36.7198 149.562 35.3371 150.104 34.0508C150.646 32.7645 151.442 31.601 152.442 30.6299C153.392 29.6148 154.541 28.807 155.816 28.257C157.091 27.7069 158.466 27.4265 159.854 27.4331C161.232 27.421 162.598 27.6957 163.865 28.24C165.132 28.7842 166.272 29.586 167.214 30.5948C168.201 31.5739 168.981 32.7416 169.51 34.0287C170.038 35.3158 170.304 36.6962 170.291 38.088Z" fill="white"/>
<path d="M197.607 25.7433H195.915C195.811 25.7433 195.711 25.7848 195.637 25.8586C195.564 25.9324 195.522 26.0325 195.522 26.1368V40.0237C195.528 41.1583 195.305 42.2822 194.866 43.3279C194.427 44.3736 193.781 45.3194 192.968 46.1083C192.187 46.9256 191.25 47.576 190.212 48.0204C189.173 48.4647 188.056 48.6938 186.928 48.6938C185.799 48.6938 184.682 48.4647 183.644 48.0204C182.606 47.576 181.668 46.9256 180.888 46.1083C180.074 45.3194 179.429 44.3736 178.99 43.3279C178.551 42.2822 178.327 41.1583 178.333 40.0237V26.1368C178.333 26.0325 178.292 25.9324 178.218 25.8586C178.145 25.7848 178.045 25.7433 177.941 25.7433H176.248C176.144 25.7433 176.044 25.7848 175.97 25.8586C175.897 25.9324 175.856 26.0325 175.856 26.1368V40.0237C175.839 41.4652 176.117 42.8949 176.673 44.2242C177.23 45.5536 178.052 46.7544 179.09 47.7523C180.103 48.7887 181.315 49.6082 182.653 50.1613C183.99 50.7145 185.426 50.9896 186.873 50.9703C190.756 50.9703 193.658 49.5651 195.522 46.8319V49.4105C195.504 51.8593 194.526 54.2026 192.799 55.9345C191.072 57.6664 188.734 58.648 186.292 58.6673C184.574 58.6552 182.895 58.1518 181.452 57.2164C179.9 56.239 178.611 54.8938 177.699 53.2994C177.656 53.2261 177.59 53.1685 177.512 53.135C177.434 53.1015 177.347 53.0939 177.264 53.1132C177.181 53.1338 177.107 53.181 177.054 53.2475C177 53.3141 176.969 53.3965 176.966 53.4821L176.858 56.1309C176.857 56.2217 176.885 56.3103 176.938 56.3838C179.227 59.4085 182.374 60.9507 186.292 60.9507C187.831 60.9676 189.359 60.6766 190.785 60.0947C192.211 59.5128 193.507 58.6517 194.597 57.5618C195.687 56.472 196.55 55.1751 197.134 53.7471C197.718 52.3192 198.013 50.7888 198 49.2454V26.1368C198 26.0325 197.959 25.9324 197.885 25.8586C197.811 25.7848 197.712 25.7433 197.607 25.7433Z" fill="white"/>
</g>
<defs>
<clipPath id="clip0_3_12">
<rect width="198" height="64" fill="white"/>
</clipPath>
</defs>
</svg>
