<svg width="198" height="64" viewBox="0 0 198 64" fill="none" xmlns="http://www.w3.org/2000/svg">
<g clip-path="url(#clip0_42_630)">
<path d="M14.053 64C13.7854 64.0001 13.5252 63.9112 13.3134 63.7472C13.1016 63.5831 12.9501 63.3533 12.8826 63.0937C12.2658 60.7751 11.7401 58.3651 11.288 55.9833C7.83849 37.568 9.18184 18.5723 15.1885 0.829073C15.3016 0.537596 15.5225 0.301055 15.8051 0.168643C16.0878 0.0362299 16.4105 0.0181371 16.7061 0.118127C17.0017 0.218117 17.2475 0.428493 17.3924 0.705505C17.5373 0.982517 17.57 1.30484 17.4839 1.60545C11.61 18.9541 10.2956 37.5275 13.6676 55.5337C14.1091 57.8593 14.6313 60.1989 15.227 62.4824C15.3073 62.7926 15.2621 63.122 15.1013 63.399C14.9405 63.676 14.6771 63.8781 14.3684 63.9614C14.2656 63.9886 14.1594 64.0016 14.053 64Z" fill="#333333"/>
<path d="M11.796 32.2565C18.3126 32.2565 23.5954 26.9607 23.5954 20.4282C23.5954 13.8956 18.3126 8.59985 11.796 8.59985C5.27935 8.59985 -0.00341797 13.8956 -0.00341797 20.4282C-0.00341797 26.9607 5.27935 32.2565 11.796 32.2565Z" fill="#ECCF62"/>
<path d="M64.201 34.3924C63.5357 32.9955 62.6076 31.7406 61.4675 30.6967C60.3275 29.6676 59.1102 28.7281 57.8264 27.8863C56.5052 27.0256 55.1666 26.2 53.8419 25.4272C52.6235 24.747 51.4441 23.9987 50.3094 23.1859C47.9615 21.4294 46.7664 19.4902 46.7664 17.407V17.1435C46.7664 15.387 47.3201 14.0204 48.4591 13.0122C49.6049 12.0006 51.0889 11.4587 52.6153 11.4946C54.1907 11.475 55.7404 11.8959 57.0905 12.7101C58.4201 13.525 59.5089 14.6807 60.2445 16.058C60.2866 16.1344 60.3527 16.1947 60.4326 16.2296C60.5124 16.2646 60.6015 16.2721 60.686 16.2512C60.7707 16.2301 60.8459 16.1814 60.8998 16.1127C60.9538 16.044 60.9834 15.9592 60.9839 15.8718V13.1668C60.9829 13.0779 60.9534 12.9917 60.8998 12.9209C58.9268 10.4301 56.2249 9.16896 52.8712 9.16896C50.4636 9.16896 48.4065 9.87156 46.7524 11.2206C45.0983 12.5696 44.2292 14.6106 44.2292 17.1927V17.5651C44.2259 19.2181 44.73 20.8321 45.6731 22.1882C46.6125 23.5651 47.82 24.7374 49.2231 25.6344C50.5968 26.5197 52.0955 27.4753 53.7192 28.5011C55.3313 29.5198 56.8382 30.507 58.2014 31.4344C59.5392 32.3521 60.6718 33.5389 61.5271 34.9193C62.3973 36.3091 62.8532 37.9192 62.8412 39.56V39.8797C62.8412 42.5742 61.9091 44.7557 60.0692 46.3682C58.2457 47.9844 55.8867 48.8611 53.4529 48.8273C50.9052 48.8273 48.7464 48.2196 47.0433 47.0181C45.3367 45.819 43.9844 44.1806 43.1289 42.2756C43.0918 42.1937 43.028 42.1271 42.948 42.0867C42.8679 42.0463 42.7765 42.0345 42.6889 42.0534C42.6013 42.0723 42.5228 42.1206 42.4664 42.1905C42.41 42.2603 42.3791 42.3473 42.3789 42.4372V45.3003C42.3794 45.3778 42.4025 45.4535 42.4455 45.5181C44.9441 49.2559 48.5046 51.1389 53.0289 51.1389C56.4597 51.1389 59.3859 50.1061 61.7198 48.0755C64.0538 46.045 65.2663 43.2346 65.2663 39.7743V39.2438C65.2874 37.5661 64.9229 35.9061 64.201 34.3924Z" fill="#333333"/>
<path d="M89.8992 25.7433H88.2065C88.1024 25.7433 88.0026 25.7848 87.929 25.8586C87.8554 25.9324 87.814 26.0325 87.814 26.1368V40.0237C87.8158 41.166 87.5805 42.2962 87.1232 43.3424C86.6659 44.3887 85.9966 45.3282 85.1577 46.1012C84.3565 46.9223 83.3997 47.5746 82.3436 48.0198C81.2874 48.465 80.1532 48.6942 79.0074 48.6938C77.8935 48.7061 76.7894 48.4825 75.7676 48.0375C74.7458 47.5926 73.8293 46.9363 73.0779 46.1118C72.2903 45.3082 71.6683 44.3569 71.2474 43.3123C70.8265 42.2677 70.6149 41.1503 70.6248 40.0237V26.1368C70.6248 26.0325 70.5835 25.9324 70.5099 25.8586C70.4363 25.7848 70.3364 25.7433 70.2323 25.7433H68.5432C68.4388 25.7433 68.3386 25.7847 68.2644 25.8584C68.1903 25.9321 68.1481 26.0321 68.1472 26.1368V40.0237C68.1215 41.4604 68.3851 42.8874 68.9222 44.2196C69.4594 45.5517 70.2589 46.7616 71.2732 47.7769C72.2735 48.8145 73.4768 49.6337 74.8077 50.1832C76.1386 50.7327 77.5684 51.0006 79.0074 50.9703C82.9359 50.9703 85.8901 49.5124 87.814 46.6317V49.9937C87.814 50.098 87.8554 50.1981 87.929 50.2719C88.0026 50.3457 88.1024 50.3871 88.2065 50.3871H89.8992C90.003 50.3862 90.1023 50.3444 90.1757 50.2709C90.2491 50.1973 90.2908 50.0977 90.2917 49.9937V26.1368C90.2917 26.0851 90.2815 26.034 90.2618 25.9862C90.2421 25.9385 90.2132 25.8951 90.1767 25.8586C90.1403 25.8221 90.097 25.7931 90.0494 25.7733C90.0018 25.7535 89.9507 25.7433 89.8992 25.7433Z" fill="#333333"/>
<path d="M112.629 28.3535C111.628 27.3165 110.425 26.4976 109.094 25.9482C107.763 25.3987 106.334 25.1305 104.895 25.1602C100.966 25.1602 98.0119 26.6181 96.088 29.4988V26.1368C96.088 26.0325 96.0466 25.9324 95.973 25.8586C95.8994 25.7848 95.7996 25.7433 95.6955 25.7433H94.0028C93.8987 25.7433 93.7989 25.7848 93.7253 25.8586C93.6517 25.9324 93.6104 26.0325 93.6104 26.1368V49.9901C93.6104 50.0418 93.6205 50.093 93.6402 50.1407C93.66 50.1884 93.6889 50.2318 93.7253 50.2684C93.7618 50.3049 93.805 50.3339 93.8526 50.3536C93.9003 50.3734 93.9513 50.3836 94.0028 50.3836H95.6955C95.747 50.3836 95.7981 50.3734 95.8457 50.3536C95.8933 50.3339 95.9366 50.3049 95.973 50.2684C96.0095 50.2318 96.0384 50.1884 96.0581 50.1407C96.0778 50.093 96.088 50.0418 96.088 49.9901V36.1032C96.0858 34.9609 96.3209 33.8306 96.7782 32.7842C97.2355 31.7379 97.9051 30.7985 98.7443 30.0257C99.5455 29.2047 100.502 28.5524 101.558 28.1071C102.615 27.6619 103.749 27.4328 104.895 27.4331C106.008 27.4207 107.111 27.6439 108.132 28.0882C109.153 28.5326 110.069 29.188 110.821 30.0117C112.411 31.6365 113.293 33.8272 113.274 36.1032V49.9901C113.274 50.0418 113.284 50.093 113.304 50.1407C113.323 50.1884 113.352 50.2318 113.389 50.2684C113.425 50.3049 113.468 50.3339 113.516 50.3536C113.564 50.3734 113.615 50.3836 113.666 50.3836H115.359C115.41 50.3836 115.461 50.3734 115.509 50.3536C115.557 50.3339 115.6 50.3049 115.636 50.2684C115.673 50.2318 115.702 50.1884 115.721 50.1407C115.741 50.093 115.751 50.0418 115.751 49.9901V36.1032C115.777 34.6674 115.513 33.2413 114.977 31.9098C114.44 30.5783 113.642 29.3688 112.629 28.3535Z" fill="#333333"/>
<path d="M143.734 9.83643H142.042C141.938 9.83643 141.838 9.87788 141.764 9.95167C141.691 10.0255 141.649 10.1255 141.649 10.2299V30.5035C140.645 29.0398 139.317 27.8281 137.77 26.9623C135.796 25.7955 133.55 25.1737 131.259 25.1602C129.55 25.1341 127.853 25.4577 126.273 26.1113C124.694 26.7648 123.263 27.7346 122.07 28.9612C120.87 30.1522 119.917 31.5699 119.267 33.1322C118.617 34.6946 118.282 36.3706 118.282 38.0635C118.282 39.7563 118.617 41.4323 119.267 42.9947C119.917 44.557 120.87 45.9747 122.07 47.1657C123.263 48.3926 124.693 49.3626 126.273 50.0162C127.853 50.6698 129.55 50.9932 131.259 50.9667C133.503 50.9468 135.703 50.3349 137.637 49.1927C139.223 48.302 140.593 47.0713 141.649 45.5883V49.9901C141.649 50.0418 141.659 50.093 141.679 50.1407C141.699 50.1884 141.728 50.2318 141.764 50.2683C141.801 50.3049 141.844 50.3339 141.891 50.3536C141.939 50.3734 141.99 50.3836 142.042 50.3836H143.734C143.786 50.3836 143.837 50.3734 143.885 50.3536C143.932 50.3339 143.975 50.3049 144.012 50.2683C144.048 50.2318 144.077 50.1884 144.097 50.1407C144.117 50.093 144.127 50.0418 144.127 49.9901V10.2369C144.128 10.1847 144.118 10.1327 144.099 10.0842C144.08 10.0356 144.051 9.99142 144.014 9.95414C143.978 9.91686 143.934 9.88724 143.886 9.86703C143.838 9.84682 143.786 9.83642 143.734 9.83643ZM131.202 27.4331C132.591 27.4262 133.967 27.7065 135.243 28.2566C136.519 28.8066 137.668 29.6146 138.618 30.6299C139.616 31.6023 140.408 32.7665 140.947 34.0528C141.486 35.339 141.76 36.721 141.754 38.1161C141.713 40.9127 140.584 43.5826 138.609 45.558C136.634 47.5334 133.968 48.6585 131.178 48.6938C129.801 48.7088 128.437 48.4375 127.17 47.8969C125.903 47.3563 124.762 46.5583 123.819 45.5532C121.854 43.562 120.754 40.8727 120.759 38.0717C120.764 35.2708 121.874 32.5856 123.847 30.6018C124.787 29.5919 125.927 28.7888 127.193 28.2433C128.459 27.6978 129.824 27.4219 131.202 27.4331Z" fill="#333333"/>
<path d="M172.27 25.7433H170.578C170.474 25.7433 170.374 25.7848 170.3 25.8586C170.227 25.9324 170.185 26.0324 170.185 26.1368V30.5105C169.246 29.0596 167.967 27.8608 166.46 27.0185C164.446 25.8145 162.147 25.1728 159.802 25.1602C158.098 25.1388 156.408 25.4647 154.834 26.1181C153.26 26.7715 151.834 27.7388 150.645 28.9612C149.436 30.1476 148.477 31.5638 147.821 33.1268C147.166 34.6897 146.829 36.3681 146.829 38.0634C146.829 39.7588 147.166 41.4372 147.821 43.0001C148.477 44.5631 149.436 45.9793 150.645 47.1657C151.834 48.3881 153.26 49.3554 154.834 50.0088C156.408 50.6622 158.098 50.9881 159.802 50.9667C162.107 50.9696 164.369 50.3455 166.348 49.161C167.893 48.2633 169.212 47.0218 170.203 45.5321V49.9901C170.203 50.0418 170.213 50.0929 170.233 50.1407C170.252 50.1884 170.281 50.2318 170.318 50.2683C170.354 50.3049 170.398 50.3338 170.445 50.3536C170.493 50.3734 170.544 50.3836 170.595 50.3836H172.288C172.34 50.3836 172.391 50.3734 172.438 50.3536C172.486 50.3338 172.529 50.3049 172.566 50.2683C172.602 50.2318 172.631 50.1884 172.651 50.1407C172.67 50.0929 172.68 50.0418 172.68 49.9901V26.1368C172.681 26.0836 172.67 26.031 172.649 25.982C172.628 25.9331 172.598 25.8889 172.559 25.8522C172.521 25.8154 172.476 25.7868 172.426 25.7681C172.376 25.7494 172.323 25.741 172.27 25.7433ZM170.29 38.088C170.304 39.4741 170.04 40.8488 169.514 42.131C168.989 43.4131 168.213 44.5768 167.231 45.5532C166.287 46.5579 165.146 47.3558 163.88 47.8963C162.613 48.4369 161.248 48.7084 159.872 48.6938C157.081 48.6603 154.413 47.536 152.436 45.5605C150.46 43.5849 149.33 40.9139 149.288 38.1161C149.285 36.7198 149.562 35.3371 150.104 34.0508C150.646 32.7645 151.441 31.601 152.442 30.6299C153.392 29.6148 154.541 28.807 155.816 28.257C157.091 27.7069 158.466 27.4265 159.854 27.4331C161.232 27.421 162.598 27.6957 163.865 28.24C165.132 28.7842 166.272 29.586 167.214 30.5948C168.2 31.5739 168.981 32.7416 169.51 34.0287C170.038 35.3158 170.304 36.6962 170.29 38.088Z" fill="#333333"/>
<path d="M197.608 25.7433H195.915C195.811 25.7433 195.711 25.7848 195.637 25.8586C195.564 25.9324 195.523 26.0325 195.523 26.1368V40.0237C195.528 41.1583 195.305 42.2822 194.866 43.3279C194.427 44.3736 193.781 45.3194 192.968 46.1083C192.187 46.9256 191.25 47.576 190.212 48.0204C189.174 48.4647 188.057 48.6938 186.928 48.6938C185.799 48.6938 184.682 48.4647 183.644 48.0204C182.606 47.576 181.669 46.9256 180.888 46.1083C180.075 45.3194 179.429 44.3736 178.99 43.3279C178.551 42.2822 178.328 41.1583 178.333 40.0237V26.1368C178.333 26.0325 178.292 25.9324 178.218 25.8586C178.145 25.7848 178.045 25.7433 177.941 25.7433H176.248C176.144 25.7433 176.044 25.7848 175.971 25.8586C175.897 25.9324 175.856 26.0325 175.856 26.1368V40.0237C175.839 41.4652 176.117 42.8949 176.674 44.2242C177.23 45.5536 178.053 46.7544 179.09 47.7523C180.103 48.7887 181.315 49.6082 182.653 50.1613C183.991 50.7145 185.427 50.9896 186.874 50.9703C190.757 50.9703 193.658 49.5651 195.523 46.8319V49.4105C195.504 51.8593 194.526 54.2026 192.799 55.9345C191.072 57.6664 188.735 58.648 186.292 58.6673C184.574 58.6552 182.895 58.1518 181.452 57.2164C179.9 56.239 178.611 54.8938 177.699 53.2994C177.656 53.2261 177.59 53.1685 177.512 53.135C177.434 53.1015 177.347 53.0939 177.264 53.1132C177.182 53.1338 177.108 53.181 177.054 53.2475C177 53.3141 176.969 53.3965 176.967 53.4821L176.858 56.1309C176.857 56.2217 176.885 56.3103 176.939 56.3838C179.227 59.4085 182.374 60.9507 186.292 60.9507C187.831 60.9676 189.359 60.6766 190.785 60.0947C192.211 59.5128 193.507 58.6517 194.597 57.5618C195.687 56.472 196.55 55.1751 197.134 53.7471C197.718 52.3192 198.013 50.7888 198 49.2454V26.1368C198 26.0325 197.959 25.9324 197.885 25.8586C197.812 25.7848 197.712 25.7433 197.608 25.7433Z" fill="#333333"/>
</g>
<defs>
<clipPath id="clip0_42_630">
<rect width="198" height="64" fill="white"/>
</clipPath>
</defs>
</svg>
