<svg width="70" height="70" viewBox="0 0 70 70" fill="none" xmlns="http://www.w3.org/2000/svg">
<path d="M6.15234 0C2.75994 0 0 2.75994 0 6.15234V31.1719H31.1719V0H6.15234ZM20.3711 17.6367H17.6367V20.3711C17.6367 21.5037 16.7185 22.4219 15.5859 22.4219C14.4534 22.4219 13.5352 21.5037 13.5352 20.3711V17.6367H10.8008C9.6682 17.6367 8.75 16.7185 8.75 15.5859C8.75 14.4534 9.6682 13.5352 10.8008 13.5352H13.5352V10.8008C13.5352 9.6682 14.4534 8.75 15.5859 8.75C16.7185 8.75 17.6367 9.6682 17.6367 10.8008V13.5352H20.3711C21.5037 13.5352 22.4219 14.4534 22.4219 15.5859C22.4219 16.7185 21.5037 17.6367 20.3711 17.6367ZM65.3289 31.1719H66.4453V6.15234C66.4453 2.75994 63.6854 0 60.293 0H35.2734V30.4322C39.3321 27.3786 44.3752 25.5664 49.834 25.5664C55.72 25.5664 61.1226 27.6734 65.3289 31.1719ZM44.0234 15.5859C44.0234 14.4534 44.9416 13.5352 46.0742 13.5352H55.6445C56.7771 13.5352 57.6953 14.4534 57.6953 15.5859C57.6953 16.7185 56.7771 17.6367 55.6445 17.6367H46.0742C44.9416 17.6367 44.0234 16.7185 44.0234 15.5859ZM30.4322 35.2734H0V60.293C0 63.6854 2.75994 66.4453 6.15234 66.4453H31.1719V65.3289C27.6734 61.1226 25.5664 55.7199 25.5664 49.834C25.5664 44.3752 27.3786 39.3321 30.4322 35.2734ZM20.4539 52.8273C21.2548 53.6282 21.2548 54.9266 20.4539 55.7275C20.0536 56.128 19.5288 56.3281 19.0039 56.3281C18.479 56.3281 17.9542 56.128 17.5539 55.7274L15.5859 53.7596L13.618 55.7275C13.2177 56.128 12.6928 56.3281 12.168 56.3281C11.6431 56.3281 11.1182 56.128 10.7179 55.7274C9.91703 54.9265 9.91703 53.6281 10.7179 52.8272L12.6857 50.8594L10.7178 48.8914C9.91689 48.0905 9.91689 46.7921 10.7178 45.9912C11.5186 45.1903 12.8171 45.1903 13.618 45.9912L15.5859 47.9592L17.5539 45.9912C18.3546 45.1903 19.6532 45.1903 20.4541 45.9912C21.255 46.7921 21.255 48.0905 20.4541 48.8914L18.4862 50.8594L20.4539 52.8273Z" fill="#B7BDB3"/>
<path d="M49.834 29.668C38.7144 29.668 29.668 38.7144 29.668 49.834C29.668 60.9536 38.7144 70 49.834 70C60.9536 70 70 60.9536 70 49.834C70 38.7144 60.9536 29.668 49.834 29.668ZM54.6191 55.3027H45.0488C43.9163 55.3027 42.998 54.3845 42.998 53.252C42.998 52.1194 43.9163 51.2012 45.0488 51.2012H54.6191C55.7517 51.2012 56.6699 52.1194 56.6699 53.252C56.6699 54.3845 55.7517 55.3027 54.6191 55.3027ZM54.6191 48.4668H45.0488C43.9163 48.4668 42.998 47.5486 42.998 46.416C42.998 45.2834 43.9163 44.3652 45.0488 44.3652H54.6191C55.7517 44.3652 56.6699 45.2834 56.6699 46.416C56.6699 47.5486 55.7517 48.4668 54.6191 48.4668Z" fill="#B7BDB3"/>
</svg>
