<svg width="32" height="32" viewBox="0 0 32 32" fill="none" xmlns="http://www.w3.org/2000/svg">
<path d="M32 5.66856V9.10856H0V5.66856C0 3.78285 1.54286 2.23999 3.42857 2.23999H7.42857V5.62285C7.42857 6.25142 7.94286 6.7657 8.57143 6.7657C9.2 6.7657 9.71429 6.25142 9.71429 5.62285V2.23999H22.2857V5.62285C22.2857 6.25142 22.8 6.7657 23.4286 6.7657C24.0571 6.7657 24.5714 6.25142 24.5714 5.62285V2.23999H28.5714C30.4571 2.23999 32 3.78285 32 5.66856ZM22.8571 22.8343H31.3029L21.7143 31.3828V23.9771C21.7143 23.3486 22.2286 22.8343 22.8571 22.8343Z" fill="#333333"/>
<path d="M32 11.3943V20.5486H22.8571C20.9714 20.5486 19.4286 22.0914 19.4286 23.9771V32H3.42857C1.54286 32 0 30.4571 0 28.5714V11.3943H32ZM9.71429 1.14286V2.24H7.42857V1.14286C7.42857 0.514286 7.94286 0 8.57143 0C9.2 0 9.71429 0.514286 9.71429 1.14286ZM24.5714 1.14286V2.24H22.2857V1.14286C22.2857 0.514286 22.8 0 23.4286 0C24.0571 0 24.5714 0.514286 24.5714 1.14286Z" fill="#333333"/>
</svg>
