<svg width="32" height="32" viewBox="0 0 32 32" fill="none" xmlns="http://www.w3.org/2000/svg">
<g clip-path="url(#clip0_310_574)">
<path d="M11.555 21.1817C11.5753 19.6499 12.3736 18.3031 13.5724 17.5187L7.57642 14.3771C7.52211 15.546 6.85254 16.5565 5.88492 17.092L11.555 21.1817ZM16 16.6738L24.4132 12.2658L22.6295 10.4822H9.37048L7.58686 12.2658L16 16.6738ZM15.0625 12.2857H16.9375V14.1607H15.0625V12.2857ZM24.4235 14.3771L18.4275 17.5187C19.6264 18.3032 20.4247 19.6499 20.4449 21.1817L26.115 17.092C25.1474 16.5565 24.4779 15.546 24.4235 14.3771Z" fill="#333333"/>
<path d="M11.3214 31.9999H20.6786C21.4516 31.9999 22.0804 31.371 22.0804 30.5981V27.8705L26.7589 23.192V18.9393L18.8966 24.6102C18.1179 25.2807 17.1058 25.6874 16 25.6874C14.8942 25.6874 13.8821 25.2807 13.1034 24.6102L5.24106 18.9393V23.1919L9.91962 27.8705V30.5981C9.91962 31.371 10.5484 31.9999 11.3214 31.9999ZM15.0625 28.0937H16.9375V29.9687H15.0625V28.0937ZM11.8348 6.17847H20.1652V8.60703H11.8348V6.17847Z" fill="#333333"/>
<path d="M16 18.6696C14.5821 18.6696 13.4286 19.8232 13.4286 21.2411C13.4286 22.6589 14.5821 23.8125 16 23.8125C17.4179 23.8125 18.5714 22.6589 18.5714 21.2411C18.5714 19.8232 17.4179 18.6696 16 18.6696ZM16.9375 22.0648H15.0625V20.1898H16.9375V22.0648ZM4.30356 10.9464C4.86668 10.9464 5.39699 11.0893 5.86037 11.3406L8.42481 8.77612L6.06606 6.41738C4.97762 5.32888 3.22874 5.29375 2.09749 6.31169L3.84037 8.0545L2.51456 9.38031L0.770681 7.63644C-0.278631 8.76644 -0.254256 10.539 0.845056 11.6383L1.59212 12.3854C2.18218 11.5176 3.17737 10.9464 4.30356 10.9464ZM31.2294 7.63644L29.4854 9.38031L28.1596 8.0545L29.9025 6.31169C28.7712 5.29375 27.0224 5.32888 25.9339 6.41738L23.5752 8.77612L26.1396 11.3406C26.6175 11.0813 27.1527 10.9458 27.6964 10.9464C28.8226 10.9464 29.8178 11.5176 30.4079 12.3854L31.1549 11.6384C32.2542 10.5391 32.2786 8.76644 31.2294 7.63644ZM9.83799 0H22.1621V4.30356H9.83799V0ZM27.6964 12.8214C26.9235 12.8214 26.2946 13.4502 26.2946 14.2232C26.2946 14.9961 26.9235 15.625 27.6964 15.625C28.4694 15.625 29.0982 14.9961 29.0982 14.2232C29.0982 13.4502 28.4694 12.8214 27.6964 12.8214ZM2.90181 14.2232C2.90181 14.9961 3.53062 15.625 4.30356 15.625C5.07649 15.625 5.70537 14.9961 5.70537 14.2232C5.70537 13.4502 5.07649 12.8214 4.30356 12.8214C3.53062 12.8214 2.90181 13.4502 2.90181 14.2232Z" fill="#333333"/>
</g>
<defs>
<clipPath id="clip0_310_574">
<rect width="32" height="32" fill="white"/>
</clipPath>
</defs>
</svg>
