<svg width="30" height="32" viewBox="0 0 30 32" fill="none" xmlns="http://www.w3.org/2000/svg">
<path d="M0.807434 13.8198V32H2.72114V12.4266C2.721 11.5571 2.7978 10.6892 2.95065 9.83325C1.66012 10.691 0.807434 12.1574 0.807434 13.8198ZM27.4115 15.2767L14.2034 5.67751V0L13.0188 0.444171C8.07626 2.21594 4.56652 7.16503 4.63484 12.4266V32H23.2714L19.506 22.5864L17.9168 22.4247L11.5378 21.6592L11.7657 19.7591L18.1361 20.5236L26.6759 21.3924C27.8255 21.5093 28.89 20.741 29.1124 19.6072L29.1166 19.5853C29.4292 17.9479 28.7599 16.2568 27.4115 15.2767Z" fill="black"/>
</svg>
