<svg width="32" height="32" viewBox="0 0 32 32" fill="none" xmlns="http://www.w3.org/2000/svg">
<path d="M21.6142 0L14.4436 3.58531L11.2841 9.90436L22.0735 20.727L28.4146 17.5564L31.9999 10.3858L21.6142 0ZM24.9983 14.1401C24.0127 15.1257 22.4147 15.1257 21.4291 14.1401L17.8598 10.5709C16.8742 9.58523 16.8742 7.98723 17.8598 7.00161C18.8455 6.01599 20.4435 6.01599 21.4291 7.00161L24.9983 10.5709C25.9839 11.5565 25.9839 13.1545 24.9983 14.1401ZM16.0176 17.3082L11.6129 21.713L10.287 20.3871L14.6938 15.9803L12.2172 13.496L6.71067 19.0026V22.146H3.56724V25.2893H0.423874L0 28.8566L3.14337 31.9999L6.71067 31.5761V28.4327H9.85404V25.2893H12.9974L18.4943 19.7925L16.0176 17.3082Z" fill="black"/>
</svg>
