<svg width="32" height="32" viewBox="0 0 32 32" fill="none" xmlns="http://www.w3.org/2000/svg">
<path d="M19.6396 11.0552C19.6074 10.8625 19.5159 10.6846 19.3778 10.5464L14.9583 6.12694C14.5922 5.76081 13.9986 5.76081 13.6325 6.12694L12.0857 7.67375L10.9808 6.56887C10.6147 6.20275 10.0211 6.20275 9.655 6.56887L5.6775 10.5464C5.52966 10.6942 5.43548 10.8872 5.40993 11.0947C5.38438 11.3022 5.42893 11.5123 5.5365 11.6916L6.48575 13.2736L1.25812 18.5013C0.892 18.8674 0.892 19.461 1.25812 19.8271L2.363 20.9319L1.373 21.9219C0.487625 22.8073 0 23.9844 0 25.2366V31.0625C0 31.5802 0.41975 32 0.9375 32C1.45525 32 1.875 31.5802 1.875 31.0625V25.2366C1.875 24.4853 2.16756 23.7791 2.69881 23.2478L3.68881 22.2578L6.1195 24.6885C7.94719 26.5162 10.921 26.5161 12.7486 24.6885L20.2616 17.1755C20.3671 17.07 20.4459 16.9408 20.4915 16.7987C20.537 16.6566 20.548 16.5056 20.5234 16.3584L19.6396 11.0552ZM11.4228 23.3627C10.3263 24.4593 8.54194 24.4593 7.44531 23.3627L6.78237 22.6998L10.2642 19.2179V20.4901C10.2642 21.0078 10.684 21.4276 11.2017 21.4276C11.7195 21.4276 12.1392 21.0078 12.1392 20.4901V18.4714L14.9224 19.8629L11.4228 23.3627ZM30.6234 11.8868C29.9872 10.7901 29.3603 9.88037 29.3339 9.84219C29.2476 9.71735 29.1324 9.6153 28.998 9.54481C28.8637 9.47432 28.7142 9.4375 28.5625 9.4375C28.4108 9.4375 28.2613 9.47432 28.127 9.54481C27.9926 9.6153 27.8774 9.71735 27.7911 9.84219C27.7647 9.88037 27.1378 10.7901 26.5016 11.8868C25.2677 14.0138 25.125 14.8962 25.125 15.375C25.125 17.2704 26.6671 18.8125 28.5625 18.8125C30.4579 18.8125 32 17.2704 32 15.375C32 14.8962 31.8573 14.0138 30.6234 11.8868ZM28.1206 4.68719C28.371 4.68719 28.6064 4.58962 28.7835 4.41256C28.8708 4.32572 28.9401 4.22241 28.9872 4.10863C29.0343 3.99485 29.0584 3.87284 29.0581 3.74969V0.937563C29.0581 0.420687 28.6376 0.000125011 28.1206 6.25108e-05L26.5267 1.07598e-08C23.7302 -0.000124989 21.1012 1.08888 19.1238 3.06625L16.8365 5.35356L20.1511 8.66813L22.4386 6.38062C23.5304 5.28875 24.9822 4.68744 26.5263 4.68738L28.1206 4.68719Z" fill="black"/>
</svg>
