<svg width="32" height="32" viewBox="0 0 32 32" fill="none" xmlns="http://www.w3.org/2000/svg">
<path d="M15.0625 19.75V13.2822C11.8906 13.7419 9.375 16.4529 9.375 19.75C9.375 23.3681 12.3819 26.3125 16 26.3125C19.2971 26.3125 22.0703 23.8594 22.5303 20.6875H16C15.4817 20.6875 15.0625 20.2681 15.0625 19.75Z" fill="black"/>
<path d="M16.9375 13.2822V18.8125H22.5303C22.1153 15.9494 19.8003 13.6972 16.9375 13.2822Z" fill="black"/>
<path d="M16.0001 7.5625C9.28006 7.5625 3.75006 13.03 3.75006 19.75C3.75006 26.47 9.28006 32 16.0001 32C22.7201 32 28.2501 26.47 28.2501 19.75C28.2501 13.03 22.7201 7.5625 16.0001 7.5625ZM16.0001 28.1875C11.3472 28.1875 7.50006 24.4026 7.50006 19.75C7.50006 15.0974 11.3472 11.3125 16.0001 11.3125C20.6526 11.3125 24.5001 15.0974 24.5001 19.75C24.5001 24.4026 20.6526 28.1875 16.0001 28.1875ZM1.60037 10.7156L2.9305 9.3855L4.78569 11.2166C5.54985 10.2205 6.4431 9.33056 7.44194 8.57006L5.58194 6.73413L6.90319 5.41288C7.26944 5.04663 7.26944 4.45337 6.90319 4.08719C6.53694 3.721 5.94375 3.72094 5.57756 4.08719L0.274687 9.38988C-0.0915625 9.75613 -0.0915625 10.3494 0.274687 10.7156C0.640938 11.0817 1.23412 11.0818 1.60031 10.7156L1.60037 10.7156ZM13.1251 3.75H14.1251V5.82737C14.7401 5.74487 15.3629 5.6875 16.0001 5.6875C16.6373 5.6875 17.2601 5.74487 17.8751 5.82737V3.75H18.8751C19.9104 3.75 20.7501 2.91062 20.7501 1.875C20.7501 0.839375 19.9104 0 18.8751 0H13.1251C12.0894 0 11.2501 0.839375 11.2501 1.875C11.2501 2.91062 12.0894 3.75 13.1251 3.75ZM27.2234 11.2288L29.0721 9.38794L30.3997 10.7156C30.7659 11.0818 31.3592 11.0818 31.7254 10.7156C32.0916 10.3493 32.0916 9.75612 31.7254 9.38994L26.4227 4.08719C26.0564 3.72094 25.4632 3.72094 25.097 4.08719C24.7308 4.45344 24.7308 5.04663 25.097 5.41281L26.4205 6.73631L24.5686 8.57788C25.5672 9.33982 26.46 10.2313 27.2234 11.2288Z" fill="black"/>
</svg>
